<svg width="157" height="497" viewBox="0 0 157 497" fill="none" xmlns="http://www.w3.org/2000/svg">
<path fill-rule="evenodd" clip-rule="evenodd" d="M138.383 2.45323C143.918 1.02133 149.745 0.534799 155.863 0.996562C156.344 118.746 155.863 236.251 154.406 353.51C154.406 236.492 154.406 119.472 154.406 2.45323C149.06 2.45323 143.729 2.45323 138.383 2.45323Z" fill="#2B6777"/>
<path fill-rule="evenodd" clip-rule="evenodd" d="M138.383 2.45679C143.729 2.45679 149.06 2.45679 154.406 2.45679C154.406 119.475 154.406 236.495 154.406 353.514C154.129 361.7 152.673 369.469 150.036 376.82C149.555 369.393 150.284 362.109 152.221 354.97C153.197 240.379 153.197 125.788 152.221 11.1968C150.488 9.64835 149.759 7.70516 150.036 5.37012C142.214 4.89234 134.435 5.37741 126.729 6.82679C119.941 9.94843 113.139 10.92 106.336 9.74012C116.445 5.57551 127.137 3.1487 138.383 2.45679Z" fill="#2B6777"/>
<path fill-rule="evenodd" clip-rule="evenodd" d="M150.037 376.823C138.922 425.01 111.246 460.213 67.0068 482.431C60.9616 485.46 54.6397 487.645 48.0701 488.986C40.2915 488.745 32.5129 488.988 24.7634 489.715C17.7714 492.676 10.4881 493.89 2.9134 493.356C2.66577 376.822 2.9134 260.288 3.64174 143.756C4.2681 128.651 7.18144 114.084 12.3817 100.056C14.8872 101.589 16.3439 100.619 16.7517 97.1429C17.349 97.8086 18.0773 98.2951 18.9367 98.5996C19.7088 94.8137 19.9564 90.9302 19.6651 86.9462C24.9091 82.1859 29.046 76.6024 32.0468 70.1946C31.3767 69.5915 30.896 68.8632 30.5901 68.0096C32.7751 66.0547 33.7511 63.6279 33.5034 60.7262C52.1633 35.8434 76.446 18.8485 106.337 9.74286C113.139 10.9228 119.942 9.95117 126.73 6.82953C134.436 5.38014 142.215 4.89507 150.037 5.37286C149.76 7.7079 150.488 9.65109 152.222 11.1995C153.198 125.791 153.198 240.381 152.222 354.973C150.284 362.112 149.556 369.396 150.037 376.823Z" fill="#2B6777"/>
<path fill-rule="evenodd" clip-rule="evenodd" d="M33.5034 60.7185C33.751 63.6202 32.775 66.047 30.59 68.0018C30.8959 68.8555 31.3766 69.5838 32.0467 70.1868C29.0459 76.5947 24.909 82.1781 19.665 86.9385C19.9563 90.9225 19.7087 94.806 18.9367 98.5919C18.0772 98.2874 17.3489 97.8009 16.7517 97.1352C16.3438 100.611 14.8871 101.581 12.3817 100.049C7.18137 114.076 4.26804 128.643 3.64167 143.749C2.91333 260.28 2.6657 376.814 2.91333 493.349C10.488 493.882 17.7713 492.668 24.7633 489.707C32.5128 488.98 40.2914 488.737 48.07 488.979C37.1013 493.764 25.448 496.192 13.11 496.262C8.74 496.262 4.37 496.262 0 496.262C0 381.185 0 266.109 0 151.032C0.859434 116.876 12.0321 86.771 33.5034 60.7185Z" fill="#2B6777"/>
</svg>
