<svg width="157" height="497" viewBox="0 0 157 497" fill="none" xmlns="http://www.w3.org/2000/svg">
<path fill-rule="evenodd" clip-rule="evenodd" d="M138.535 2.53941C144.07 1.10751 149.897 0.62098 156.015 1.08274C156.496 118.832 156.015 236.337 154.559 353.596C154.559 236.578 154.559 119.558 154.559 2.53941C149.213 2.53941 143.881 2.53941 138.535 2.53941Z" fill="#2B6777"/>
<path fill-rule="evenodd" clip-rule="evenodd" d="M138.535 2.53906C143.881 2.53906 149.212 2.53906 154.558 2.53906C154.558 119.558 154.558 236.577 154.558 353.596C154.282 361.782 152.825 369.551 150.188 376.903C149.708 369.475 150.436 362.192 152.373 355.053C153.349 240.461 153.349 125.871 152.373 11.2791C150.64 9.73063 149.912 7.78744 150.188 5.4524C142.366 4.97461 134.587 5.45968 126.882 6.90907C120.094 10.0307 113.291 11.0023 106.488 9.8224C116.598 5.65779 127.289 3.23098 138.535 2.53906Z" fill="#2B6777"/>
<path fill-rule="evenodd" clip-rule="evenodd" d="M150.189 376.909C139.075 425.096 111.398 460.299 67.1591 482.518C61.1139 485.546 54.792 487.731 48.2224 489.073C40.4438 488.831 32.6652 489.074 24.9158 489.801C17.9238 492.762 10.6404 493.976 3.06575 493.443C2.81811 376.908 3.06575 260.374 3.79408 143.842C4.42045 128.737 7.33378 114.17 12.5341 100.142C15.0396 101.675 16.4962 100.705 16.9041 97.2291C17.5013 97.8948 18.2297 98.3813 19.0891 98.6858C19.8611 94.8999 20.1088 91.0164 19.8174 87.0324C25.0614 82.272 29.1984 76.6886 32.1991 70.2807C31.529 69.6777 31.0483 68.9494 30.7424 68.0957C32.9274 66.1409 33.9034 63.7141 33.6558 60.8124C52.3157 35.9296 76.5983 18.9347 106.489 9.82905C113.292 11.0089 120.094 10.0373 126.882 6.91571C134.588 5.46633 142.367 4.98126 150.189 5.45904C149.912 7.79408 150.641 9.73727 152.374 11.2857C153.35 125.877 153.35 240.468 152.374 355.059C150.437 362.198 149.708 369.482 150.189 376.909Z" fill="#2B6777"/>
<path fill-rule="evenodd" clip-rule="evenodd" d="M33.6557 60.8086C33.9033 63.7103 32.9274 66.1371 30.7424 68.0919C31.0483 68.9455 31.529 69.6739 32.199 70.2769C29.1983 76.6848 25.0614 82.2682 19.8174 87.0286C20.1087 91.0126 19.8611 94.8961 19.089 98.6819C18.2296 98.3775 17.5013 97.891 16.904 97.2253C16.4962 100.701 15.0395 101.671 12.534 100.139C7.33371 114.166 4.42038 128.733 3.79401 143.839C3.06568 260.371 2.81805 376.904 3.06568 493.439C10.6403 493.972 17.9237 492.759 24.9157 489.797C32.6652 489.07 40.4438 488.827 48.2224 489.069C37.2537 493.854 25.6003 496.282 13.2624 496.352C8.89235 496.352 4.52235 496.352 0.152344 496.352C0.152344 381.275 0.152344 266.199 0.152344 151.122C1.01178 116.966 12.1844 86.8611 33.6557 60.8086Z" fill="#2B6777"/>
</svg>
