<svg width="157" height="496" viewBox="0 0 157 496" fill="none" xmlns="http://www.w3.org/2000/svg">
<path fill-rule="evenodd" clip-rule="evenodd" d="M138.691 1.62535C144.227 0.193445 150.053 -0.293082 156.171 0.168682C156.652 117.918 156.171 235.423 154.715 352.682C154.715 235.664 154.715 118.644 154.715 1.62535C149.369 1.62535 144.037 1.62535 138.691 1.62535Z" fill="#2B6777"/>
<path fill-rule="evenodd" clip-rule="evenodd" d="M138.691 1.625C144.037 1.625 149.369 1.625 154.715 1.625C154.715 118.643 154.715 235.663 154.715 352.682C154.438 360.868 152.981 368.637 150.345 375.989C149.864 368.561 150.592 361.278 152.53 354.139C153.506 239.547 153.506 124.957 152.53 10.365C150.796 8.81657 150.068 6.87337 150.345 4.53834C142.522 4.06055 134.744 4.54562 127.038 5.995C120.25 9.11664 113.447 10.0882 106.645 8.90834C116.754 4.74373 127.446 2.31692 138.691 1.625Z" fill="#2B6777"/>
<path fill-rule="evenodd" clip-rule="evenodd" d="M150.345 375.987C139.231 424.174 111.554 459.377 67.3154 481.596C61.2702 484.624 54.9483 486.809 48.3787 488.151C40.6001 487.909 32.8215 488.152 25.072 488.879C18.08 491.841 10.7967 493.054 3.222 492.521C2.97436 375.986 3.222 259.453 3.95033 142.921C4.5767 127.815 7.49003 113.248 12.6903 99.2206C15.1958 100.753 16.6525 99.7828 17.0603 96.3072C17.6576 96.9729 18.3859 97.4594 19.2453 97.7639C20.0174 93.978 20.265 90.0945 19.9737 86.1106C25.2177 81.3502 29.3546 75.7668 32.3553 69.3589C31.6853 68.7558 31.2046 68.0275 30.8987 67.1739C33.0837 65.219 34.0597 62.7922 33.812 59.8905C52.4719 35.0077 76.7546 18.0128 106.645 8.90717C113.448 10.0871 120.251 9.11547 127.039 5.99384C134.745 4.54445 142.523 4.05938 150.345 4.53717C150.069 6.87221 150.797 8.8154 152.53 10.3638C153.506 124.956 153.506 239.546 152.53 354.137C150.593 361.277 149.865 368.56 150.345 375.987Z" fill="#2B6777"/>
<path fill-rule="evenodd" clip-rule="evenodd" d="M33.8119 59.8906C34.0596 62.7923 33.0836 65.2191 30.8986 67.174C31.2045 68.0276 31.6852 68.7559 32.3553 69.359C29.3545 75.7668 25.2176 81.3502 19.9736 86.1106C20.2649 90.0946 20.0173 93.9781 19.2453 97.764C18.3858 97.4595 17.6575 96.973 17.0603 96.3073C16.6524 99.7829 15.1957 100.753 12.6903 99.2206C7.48996 113.248 4.57663 127.815 3.95026 142.921C3.22193 259.453 2.9743 375.986 3.22193 492.521C10.7966 493.054 18.0799 491.841 25.0719 488.879C32.8214 488.152 40.6 487.909 48.3786 488.151C37.4099 492.936 25.7566 495.364 13.4186 495.434C9.0486 495.434 4.6786 495.434 0.308594 495.434C0.308594 380.357 0.308594 265.281 0.308594 150.204C1.16803 116.048 12.3407 85.9431 33.8119 59.8906Z" fill="#2B6777"/>
</svg>
