<svg width="162" height="148" viewBox="0 0 162 148" fill="none" xmlns="http://www.w3.org/2000/svg">
<path d="M161.196 66.9707C161.196 75.4766 159.736 83.3477 156.816 90.584C153.96 97.8203 150.088 104.422 145.2 110.389C140.312 116.292 134.663 121.529 128.252 126.099C121.841 130.669 115.112 134.51 108.066 137.62C101.021 140.73 93.8477 143.079 86.5479 144.666C79.3115 146.253 72.4243 147.046 65.8862 147.046C56.2378 147.046 47.4146 145.428 39.4165 142.19C31.4819 139.017 24.6582 134.573 18.9453 128.86C13.2324 123.147 8.78906 116.355 5.61523 108.484C2.50488 100.613 0.949707 92.0122 0.949707 82.6812C0.949707 74.4927 2.37793 66.7803 5.23438 59.5439C8.1543 52.2441 12.0581 45.5791 16.9458 39.5488C21.897 33.4551 27.6099 27.9961 34.0845 23.1719C40.6226 18.3477 47.5098 14.2852 54.7461 10.9844C62.0459 7.62012 69.4727 5.04932 77.0264 3.27197C84.6436 1.49463 91.9751 0.605957 99.021 0.605957C105.369 0.605957 111.304 1.43115 116.826 3.08154C122.349 4.66846 127.395 6.95361 131.965 9.93701C136.599 12.8569 140.725 16.3799 144.343 20.5059C147.961 24.5684 151.008 29.0752 153.484 34.0264C156.023 38.9141 157.927 44.1509 159.197 49.7368C160.53 55.3228 161.196 61.0674 161.196 66.9707ZM75.4077 13.2695C67.1558 13.2695 59.9512 14.793 53.7939 17.8398C47.7002 20.8232 42.6221 24.8857 38.5596 30.0273C34.4971 35.1689 31.4502 41.1675 29.4189 48.0229C27.4512 54.8149 26.4673 62.0195 26.4673 69.6367C26.4673 79.2217 28.1494 88.0132 31.5137 96.0112C34.8779 104.009 39.48 110.896 45.3198 116.673C51.2231 122.449 58.1738 126.956 66.1719 130.193C74.1699 133.367 82.8345 134.954 92.1655 134.954C97.2437 134.954 101.846 134.129 105.972 132.479C110.098 130.828 113.779 128.606 117.017 125.813C120.254 122.957 123.047 119.656 125.396 115.911C127.808 112.103 129.775 108.072 131.299 103.819C132.822 99.5659 133.965 95.2178 134.727 90.7744C135.488 86.2676 135.869 81.8877 135.869 77.6348C135.869 68.6846 134.409 60.3057 131.489 52.498C128.569 44.6904 124.443 37.8984 119.111 32.1221C113.779 26.2822 107.4 21.6802 99.9731 18.3159C92.5464 14.9517 84.3579 13.2695 75.4077 13.2695Z" fill="#2B6777"/>
</svg>
