<svg width="181" height="38" viewBox="0 0 181 38" fill="none" xmlns="http://www.w3.org/2000/svg">
<rect width="181" height="38" rx="10" fill="#37AD0D" fill-opacity="0.1"/>
<g clip-path="url(#clip0_520_6950)">
<path d="M40.5 11C38.9178 11 37.371 11.4692 36.0554 12.3482C34.7398 13.2273 33.7145 14.4767 33.109 15.9385C32.5035 17.4003 32.345 19.0089 32.6537 20.5607C32.9624 22.1126 33.7243 23.538 34.8431 24.6569C35.962 25.7757 37.3874 26.5376 38.9393 26.8463C40.4911 27.155 42.0997 26.9965 43.5615 26.391C45.0233 25.7855 46.2727 24.7602 47.1518 23.4446C48.0308 22.129 48.5 20.5822 48.5 19C48.5 16.8783 47.6571 14.8434 46.1569 13.3431C44.6566 11.8429 42.6217 11 40.5 11V11ZM45.0467 17.07L40.0267 22.7633C39.9457 22.8546 39.8474 22.929 39.7376 22.9822C39.6278 23.0354 39.5085 23.0663 39.3867 23.0733H39.3267C39.0993 23.0747 38.8795 22.9916 38.71 22.84L36.0233 20.4567C35.8386 20.2927 35.7265 20.062 35.7118 19.8154C35.6971 19.5688 35.781 19.3264 35.945 19.1417C36.109 18.9569 36.3397 18.8448 36.5863 18.8302C36.8329 18.8155 37.0752 18.8993 37.26 19.0633L39.26 20.8267L43.6633 15.8267C43.8269 15.6415 44.0573 15.5288 44.3039 15.5135C44.5505 15.4982 44.7931 15.5814 44.9783 15.745C45.1635 15.9085 45.2762 16.139 45.2915 16.3856C45.3068 16.6322 45.2236 16.8748 45.06 17.06L45.0467 17.07Z" fill="#37AD0D"/>
</g>
<path d="M54.78 24L57.37 14.354H60.044L62.634 24H61.276L60.646 21.69H56.754L56.124 24H54.78ZM57.02 20.542H60.394L59.05 15.474H58.364L57.02 20.542ZM66.5202 24.14C65.7642 24.14 65.1715 24.0187 64.7422 23.776C64.3129 23.524 64.0095 23.1227 63.8322 22.572C63.6549 22.0213 63.5662 21.298 63.5662 20.402C63.5662 19.534 63.6642 18.8433 63.8602 18.33C64.0562 17.8073 64.3735 17.4293 64.8122 17.196C65.2509 16.9627 65.8249 16.846 66.5342 16.846C66.7022 16.846 66.9029 16.86 67.1362 16.888C67.3789 16.9067 67.6215 16.9347 67.8642 16.972C68.1162 17.0093 68.3309 17.042 68.5082 17.07L68.4662 18.134C68.3075 18.1153 68.1209 18.0967 67.9062 18.078C67.6915 18.0593 67.4862 18.0453 67.2902 18.036C67.0942 18.0173 66.9309 18.008 66.8002 18.008C66.2962 18.008 65.9042 18.0873 65.6242 18.246C65.3535 18.4047 65.1622 18.6567 65.0502 19.002C64.9475 19.3473 64.8962 19.814 64.8962 20.402C64.8962 21.0367 64.9429 21.5453 65.0362 21.928C65.1389 22.3013 65.3255 22.572 65.5962 22.74C65.8669 22.8987 66.2682 22.978 66.8002 22.978C66.9309 22.978 67.0942 22.9733 67.2902 22.964C67.4955 22.9453 67.7055 22.9267 67.9202 22.908C68.1442 22.8893 68.3355 22.8753 68.4942 22.866L68.5362 23.93C68.3495 23.958 68.1302 23.986 67.8782 24.014C67.6355 24.0513 67.3929 24.0793 67.1502 24.098C66.9075 24.126 66.6975 24.14 66.5202 24.14ZM72.6725 24.14C71.9165 24.14 71.3239 24.0187 70.8945 23.776C70.4652 23.524 70.1619 23.1227 69.9845 22.572C69.8072 22.0213 69.7185 21.298 69.7185 20.402C69.7185 19.534 69.8165 18.8433 70.0125 18.33C70.2085 17.8073 70.5259 17.4293 70.9645 17.196C71.4032 16.9627 71.9772 16.846 72.6865 16.846C72.8545 16.846 73.0552 16.86 73.2885 16.888C73.5312 16.9067 73.7739 16.9347 74.0165 16.972C74.2685 17.0093 74.4832 17.042 74.6605 17.07L74.6185 18.134C74.4599 18.1153 74.2732 18.0967 74.0585 18.078C73.8439 18.0593 73.6385 18.0453 73.4425 18.036C73.2465 18.0173 73.0832 18.008 72.9525 18.008C72.4485 18.008 72.0565 18.0873 71.7765 18.246C71.5059 18.4047 71.3145 18.6567 71.2025 19.002C71.0999 19.3473 71.0485 19.814 71.0485 20.402C71.0485 21.0367 71.0952 21.5453 71.1885 21.928C71.2912 22.3013 71.4779 22.572 71.7485 22.74C72.0192 22.8987 72.4205 22.978 72.9525 22.978C73.0832 22.978 73.2465 22.9733 73.4425 22.964C73.6479 22.9453 73.8579 22.9267 74.0725 22.908C74.2965 22.8893 74.4879 22.8753 74.6465 22.866L74.6885 23.93C74.5019 23.958 74.2825 23.986 74.0305 24.014C73.7879 24.0513 73.5452 24.0793 73.3025 24.098C73.0599 24.126 72.8499 24.14 72.6725 24.14ZM78.7269 24.14C78.0082 24.14 77.4389 24.0093 77.0189 23.748C76.6082 23.4773 76.3096 23.076 76.1229 22.544C75.9362 22.012 75.8429 21.3447 75.8429 20.542C75.8429 19.6647 75.9642 18.9553 76.2069 18.414C76.4589 17.8727 76.8089 17.476 77.2569 17.224C77.7049 16.972 78.2416 16.846 78.8669 16.846C79.8282 16.846 80.5516 17.1073 81.0369 17.63C81.5316 18.1433 81.7789 18.974 81.7789 20.122L81.7089 21.004H77.1729C77.1822 21.676 77.3082 22.1847 77.5509 22.53C77.7936 22.866 78.2322 23.034 78.8669 23.034C79.1376 23.034 79.4316 23.0293 79.7489 23.02C80.0756 23.0013 80.3976 22.9827 80.7149 22.964C81.0322 22.9453 81.3029 22.9267 81.5269 22.908L81.5549 23.888C81.3216 23.9253 81.0416 23.9627 80.7149 24C80.3882 24.0467 80.0476 24.0793 79.6929 24.098C79.3476 24.126 79.0256 24.14 78.7269 24.14ZM77.1729 20.038H80.4769C80.4769 19.2447 80.3462 18.6893 80.0849 18.372C79.8329 18.0547 79.4269 17.896 78.8669 17.896C78.3162 17.896 77.8962 18.0593 77.6069 18.386C77.3176 18.7127 77.1729 19.2633 77.1729 20.038ZM83.2876 27.052V16.986H84.5896V17.476C84.7296 17.392 84.9116 17.3033 85.1356 17.21C85.3596 17.1073 85.5976 17.0233 85.8496 16.958C86.1016 16.8833 86.3443 16.846 86.5776 16.846C87.4829 16.846 88.1409 17.1353 88.5516 17.714C88.9623 18.2833 89.1676 19.1887 89.1676 20.43C89.1676 21.3353 89.0603 22.0633 88.8456 22.614C88.6403 23.1553 88.3089 23.5473 87.8516 23.79C87.4036 24.0233 86.8203 24.14 86.1016 24.14C85.8216 24.14 85.5369 24.1213 85.2476 24.084C84.9676 24.0467 84.7483 24.014 84.5896 23.986V27.052H83.2876ZM85.9756 23.02C86.4423 23.02 86.8109 22.9313 87.0816 22.754C87.3616 22.5767 87.5576 22.2967 87.6696 21.914C87.7816 21.5313 87.8376 21.032 87.8376 20.416C87.8376 19.52 87.7069 18.8947 87.4456 18.54C87.1843 18.176 86.8156 17.994 86.3396 17.994C86.1343 17.994 85.9196 18.022 85.6956 18.078C85.4809 18.1247 85.2756 18.1853 85.0796 18.26C84.8836 18.3253 84.7203 18.4 84.5896 18.484V22.894C84.7296 22.9127 84.9303 22.9407 85.1916 22.978C85.4623 23.006 85.7236 23.02 85.9756 23.02ZM93.0908 24.154C92.5961 24.154 92.1994 24.0793 91.9008 23.93C91.6114 23.7807 91.4014 23.524 91.2708 23.16C91.1494 22.7867 91.0888 22.264 91.0888 21.592V18.092H90.1368V16.986H91.0888V14.928H92.3768V16.986H94.4628V18.092H92.3768V21.228C92.3768 21.6853 92.3954 22.0447 92.4328 22.306C92.4794 22.558 92.5681 22.7353 92.6988 22.838C92.8294 22.9407 93.0348 22.992 93.3148 22.992C93.4081 22.992 93.5248 22.992 93.6648 22.992C93.8048 22.9827 93.9494 22.9733 94.0988 22.964C94.2481 22.9453 94.3788 22.9313 94.4908 22.922L94.5608 23.986C94.3461 24.0233 94.0941 24.0607 93.8048 24.098C93.5154 24.1353 93.2774 24.154 93.0908 24.154ZM98.2503 24.14C97.5317 24.14 96.9623 24.0093 96.5423 23.748C96.1317 23.4773 95.833 23.076 95.6463 22.544C95.4597 22.012 95.3663 21.3447 95.3663 20.542C95.3663 19.6647 95.4877 18.9553 95.7303 18.414C95.9823 17.8727 96.3323 17.476 96.7803 17.224C97.2283 16.972 97.765 16.846 98.3903 16.846C99.3517 16.846 100.075 17.1073 100.56 17.63C101.055 18.1433 101.302 18.974 101.302 20.122L101.232 21.004H96.6963C96.7057 21.676 96.8317 22.1847 97.0743 22.53C97.317 22.866 97.7557 23.034 98.3903 23.034C98.661 23.034 98.955 23.0293 99.2723 23.02C99.599 23.0013 99.921 22.9827 100.238 22.964C100.556 22.9453 100.826 22.9267 101.05 22.908L101.078 23.888C100.845 23.9253 100.565 23.9627 100.238 24C99.9117 24.0467 99.571 24.0793 99.2163 24.098C98.871 24.126 98.549 24.14 98.2503 24.14ZM96.6963 20.038H100C100 19.2447 99.8697 18.6893 99.6083 18.372C99.3563 18.0547 98.9503 17.896 98.3903 17.896C97.8397 17.896 97.4197 18.0593 97.1303 18.386C96.841 18.7127 96.6963 19.2633 96.6963 20.038ZM105.065 24.14C104.776 24.14 104.5 24.1073 104.239 24.042C103.978 23.9767 103.74 23.8693 103.525 23.72C103.32 23.5613 103.138 23.3467 102.979 23.076C102.83 22.8053 102.713 22.4647 102.629 22.054C102.554 21.634 102.517 21.13 102.517 20.542C102.517 19.7207 102.615 19.0393 102.811 18.498C103.007 17.9473 103.32 17.5367 103.749 17.266C104.178 16.986 104.752 16.846 105.471 16.846C105.723 16.846 106.012 16.8693 106.339 16.916C106.666 16.9533 106.918 16.986 107.095 17.014V14.004H108.411V24H107.123L107.109 23.552C106.969 23.636 106.782 23.7247 106.549 23.818C106.325 23.9113 106.082 23.986 105.821 24.042C105.56 24.1073 105.308 24.14 105.065 24.14ZM105.303 23.006C105.527 23.006 105.751 22.9827 105.975 22.936C106.199 22.88 106.409 22.8147 106.605 22.74C106.81 22.6653 106.974 22.6 107.095 22.544V18.106C106.992 18.0873 106.848 18.0687 106.661 18.05C106.484 18.0313 106.297 18.0127 106.101 17.994C105.914 17.9753 105.742 17.966 105.583 17.966C105.144 17.966 104.799 18.064 104.547 18.26C104.295 18.456 104.113 18.7453 104.001 19.128C103.898 19.5107 103.847 19.982 103.847 20.542C103.847 21.0647 103.884 21.4847 103.959 21.802C104.034 22.1193 104.136 22.3667 104.267 22.544C104.407 22.7213 104.566 22.8427 104.743 22.908C104.92 22.9733 105.107 23.006 105.303 23.006ZM113.884 22.46V18.498H117.412V22.46H113.884ZM123.035 24V14.354H126.591C127.329 14.354 127.935 14.4707 128.411 14.704C128.887 14.928 129.242 15.2733 129.475 15.74C129.709 16.2067 129.825 16.8087 129.825 17.546C129.825 18.274 129.709 18.8853 129.475 19.38C129.242 19.8747 128.887 20.248 128.411 20.5C127.935 20.752 127.329 20.878 126.591 20.878H124.379V24H123.035ZM124.379 19.744H126.577C127.24 19.744 127.716 19.5573 128.005 19.184C128.304 18.8013 128.453 18.2553 128.453 17.546C128.453 16.8367 128.304 16.3187 128.005 15.992C127.716 15.6653 127.24 15.502 126.577 15.502H124.379V19.744ZM132.804 24.14C132.141 24.14 131.637 23.958 131.292 23.594C130.947 23.23 130.774 22.6933 130.774 21.984C130.774 21.508 130.858 21.1253 131.026 20.836C131.194 20.5373 131.441 20.3133 131.768 20.164C132.104 20.0147 132.519 19.926 133.014 19.898L135.044 19.702V19.156C135.044 18.7173 134.946 18.4093 134.75 18.232C134.554 18.0453 134.26 17.952 133.868 17.952C133.625 17.952 133.341 17.9613 133.014 17.98C132.687 17.9987 132.365 18.022 132.048 18.05C131.731 18.078 131.446 18.106 131.194 18.134L131.138 17.182C131.371 17.126 131.647 17.0747 131.964 17.028C132.291 16.9813 132.631 16.9393 132.986 16.902C133.341 16.8647 133.667 16.846 133.966 16.846C134.517 16.846 134.969 16.9253 135.324 17.084C135.679 17.2427 135.94 17.49 136.108 17.826C136.276 18.162 136.36 18.596 136.36 19.128V22.572C136.379 22.7587 136.453 22.8987 136.584 22.992C136.724 23.076 136.897 23.132 137.102 23.16L137.06 24.126C136.855 24.126 136.659 24.1167 136.472 24.098C136.295 24.0887 136.131 24.0607 135.982 24.014C135.833 23.9767 135.697 23.9253 135.576 23.86C135.464 23.7853 135.357 23.7013 135.254 23.608C135.086 23.6827 134.867 23.762 134.596 23.846C134.325 23.93 134.036 24 133.728 24.056C133.42 24.112 133.112 24.14 132.804 24.14ZM133.07 23.104C133.303 23.104 133.541 23.0807 133.784 23.034C134.036 22.9873 134.274 22.936 134.498 22.88C134.722 22.8147 134.904 22.7587 135.044 22.712V20.612L133.182 20.794C132.79 20.822 132.51 20.934 132.342 21.13C132.174 21.3167 132.09 21.5873 132.09 21.942C132.09 22.306 132.169 22.5907 132.328 22.796C132.496 23.0013 132.743 23.104 133.07 23.104ZM138.303 24V16.986H139.605V24H138.303ZM138.303 15.572V14.214H139.605V15.572H138.303ZM143.729 24.14C143.44 24.14 143.164 24.1073 142.903 24.042C142.642 23.9767 142.404 23.8693 142.189 23.72C141.984 23.5613 141.802 23.3467 141.643 23.076C141.494 22.8053 141.377 22.4647 141.293 22.054C141.218 21.634 141.181 21.13 141.181 20.542C141.181 19.7207 141.279 19.0393 141.475 18.498C141.671 17.9473 141.984 17.5367 142.413 17.266C142.842 16.986 143.416 16.846 144.135 16.846C144.387 16.846 144.676 16.8693 145.003 16.916C145.33 16.9533 145.582 16.986 145.759 17.014V14.004H147.075V24H145.787L145.773 23.552C145.633 23.636 145.446 23.7247 145.213 23.818C144.989 23.9113 144.746 23.986 144.485 24.042C144.224 24.1073 143.972 24.14 143.729 24.14ZM143.967 23.006C144.191 23.006 144.415 22.9827 144.639 22.936C144.863 22.88 145.073 22.8147 145.269 22.74C145.474 22.6653 145.638 22.6 145.759 22.544V18.106C145.656 18.0873 145.512 18.0687 145.325 18.05C145.148 18.0313 144.961 18.0127 144.765 17.994C144.578 17.9753 144.406 17.966 144.247 17.966C143.808 17.966 143.463 18.064 143.211 18.26C142.959 18.456 142.777 18.7453 142.665 19.128C142.562 19.5107 142.511 19.982 142.511 20.542C142.511 21.0647 142.548 21.4847 142.623 21.802C142.698 22.1193 142.8 22.3667 142.931 22.544C143.071 22.7213 143.23 22.8427 143.407 22.908C143.584 22.9733 143.771 23.006 143.967 23.006Z" fill="#37AD0D"/>
<defs>
<clipPath id="clip0_520_6950">
<rect width="16" height="16" fill="white" transform="translate(32.5 11)"/>
</clipPath>
</defs>
</svg>
