<svg width="181" height="38" viewBox="0 0 181 38" fill="none" xmlns="http://www.w3.org/2000/svg">
<rect width="181" height="38" rx="10" fill="#42FF00" fill-opacity="0.1"/>
<g clip-path="url(#clip0_520_6930)">
<path d="M32.5 11C28.1 11 24.5 14.6 24.5 19C24.5 23.4 28.1 27 32.5 27C36.9 27 40.5 23.4 40.5 19C40.5 14.6 36.9 11 32.5 11ZM35.46 20.84C35.78 21.16 35.78 21.64 35.46 21.96C35.14 22.28 34.66 22.28 34.34 21.96L32.5 20.12L30.66 21.96C30.34 22.28 29.86 22.28 29.54 21.96C29.22 21.64 29.22 21.16 29.54 20.84L31.38 19L29.54 17.16C29.22 16.84 29.22 16.36 29.54 16.04C29.86 15.72 30.34 15.72 30.66 16.04L32.5 17.88L34.34 16.04C34.66 15.72 35.14 15.72 35.46 16.04C35.78 16.36 35.78 16.84 35.46 17.16L33.62 19L35.46 20.84Z" fill="#42FF00"/>
</g>
<path d="M46.78 24L49.37 14.354H52.044L54.634 24H53.276L52.646 21.69H48.754L48.124 24H46.78ZM49.02 20.542H52.394L51.05 15.474H50.364L49.02 20.542ZM58.5202 24.14C57.7642 24.14 57.1715 24.0187 56.7422 23.776C56.3129 23.524 56.0095 23.1227 55.8322 22.572C55.6549 22.0213 55.5662 21.298 55.5662 20.402C55.5662 19.534 55.6642 18.8433 55.8602 18.33C56.0562 17.8073 56.3735 17.4293 56.8122 17.196C57.2509 16.9627 57.8249 16.846 58.5342 16.846C58.7022 16.846 58.9029 16.86 59.1362 16.888C59.3789 16.9067 59.6215 16.9347 59.8642 16.972C60.1162 17.0093 60.3309 17.042 60.5082 17.07L60.4662 18.134C60.3075 18.1153 60.1209 18.0967 59.9062 18.078C59.6915 18.0593 59.4862 18.0453 59.2902 18.036C59.0942 18.0173 58.9309 18.008 58.8002 18.008C58.2962 18.008 57.9042 18.0873 57.6242 18.246C57.3535 18.4047 57.1622 18.6567 57.0502 19.002C56.9475 19.3473 56.8962 19.814 56.8962 20.402C56.8962 21.0367 56.9429 21.5453 57.0362 21.928C57.1389 22.3013 57.3255 22.572 57.5962 22.74C57.8669 22.8987 58.2682 22.978 58.8002 22.978C58.9309 22.978 59.0942 22.9733 59.2902 22.964C59.4955 22.9453 59.7055 22.9267 59.9202 22.908C60.1442 22.8893 60.3355 22.8753 60.4942 22.866L60.5362 23.93C60.3495 23.958 60.1302 23.986 59.8782 24.014C59.6355 24.0513 59.3929 24.0793 59.1502 24.098C58.9075 24.126 58.6975 24.14 58.5202 24.14ZM64.6725 24.14C63.9165 24.14 63.3239 24.0187 62.8945 23.776C62.4652 23.524 62.1619 23.1227 61.9845 22.572C61.8072 22.0213 61.7185 21.298 61.7185 20.402C61.7185 19.534 61.8165 18.8433 62.0125 18.33C62.2085 17.8073 62.5259 17.4293 62.9645 17.196C63.4032 16.9627 63.9772 16.846 64.6865 16.846C64.8545 16.846 65.0552 16.86 65.2885 16.888C65.5312 16.9067 65.7739 16.9347 66.0165 16.972C66.2685 17.0093 66.4832 17.042 66.6605 17.07L66.6185 18.134C66.4599 18.1153 66.2732 18.0967 66.0585 18.078C65.8439 18.0593 65.6385 18.0453 65.4425 18.036C65.2465 18.0173 65.0832 18.008 64.9525 18.008C64.4485 18.008 64.0565 18.0873 63.7765 18.246C63.5059 18.4047 63.3145 18.6567 63.2025 19.002C63.0999 19.3473 63.0485 19.814 63.0485 20.402C63.0485 21.0367 63.0952 21.5453 63.1885 21.928C63.2912 22.3013 63.4779 22.572 63.7485 22.74C64.0192 22.8987 64.4205 22.978 64.9525 22.978C65.0832 22.978 65.2465 22.9733 65.4425 22.964C65.6479 22.9453 65.8579 22.9267 66.0725 22.908C66.2965 22.8893 66.4879 22.8753 66.6465 22.866L66.6885 23.93C66.5019 23.958 66.2825 23.986 66.0305 24.014C65.7879 24.0513 65.5452 24.0793 65.3025 24.098C65.0599 24.126 64.8499 24.14 64.6725 24.14ZM70.7269 24.14C70.0082 24.14 69.4389 24.0093 69.0189 23.748C68.6082 23.4773 68.3096 23.076 68.1229 22.544C67.9362 22.012 67.8429 21.3447 67.8429 20.542C67.8429 19.6647 67.9642 18.9553 68.2069 18.414C68.4589 17.8727 68.8089 17.476 69.2569 17.224C69.7049 16.972 70.2416 16.846 70.8669 16.846C71.8282 16.846 72.5516 17.1073 73.0369 17.63C73.5316 18.1433 73.7789 18.974 73.7789 20.122L73.7089 21.004H69.1729C69.1822 21.676 69.3082 22.1847 69.5509 22.53C69.7936 22.866 70.2322 23.034 70.8669 23.034C71.1376 23.034 71.4316 23.0293 71.7489 23.02C72.0756 23.0013 72.3976 22.9827 72.7149 22.964C73.0322 22.9453 73.3029 22.9267 73.5269 22.908L73.5549 23.888C73.3216 23.9253 73.0416 23.9627 72.7149 24C72.3882 24.0467 72.0476 24.0793 71.6929 24.098C71.3476 24.126 71.0256 24.14 70.7269 24.14ZM69.1729 20.038H72.4769C72.4769 19.2447 72.3462 18.6893 72.0849 18.372C71.8329 18.0547 71.4269 17.896 70.8669 17.896C70.3162 17.896 69.8962 18.0593 69.6069 18.386C69.3176 18.7127 69.1729 19.2633 69.1729 20.038ZM75.2876 27.052V16.986H76.5896V17.476C76.7296 17.392 76.9116 17.3033 77.1356 17.21C77.3596 17.1073 77.5976 17.0233 77.8496 16.958C78.1016 16.8833 78.3443 16.846 78.5776 16.846C79.4829 16.846 80.1409 17.1353 80.5516 17.714C80.9623 18.2833 81.1676 19.1887 81.1676 20.43C81.1676 21.3353 81.0603 22.0633 80.8456 22.614C80.6403 23.1553 80.3089 23.5473 79.8516 23.79C79.4036 24.0233 78.8203 24.14 78.1016 24.14C77.8216 24.14 77.5369 24.1213 77.2476 24.084C76.9676 24.0467 76.7483 24.014 76.5896 23.986V27.052H75.2876ZM77.9756 23.02C78.4423 23.02 78.8109 22.9313 79.0816 22.754C79.3616 22.5767 79.5576 22.2967 79.6696 21.914C79.7816 21.5313 79.8376 21.032 79.8376 20.416C79.8376 19.52 79.7069 18.8947 79.4456 18.54C79.1843 18.176 78.8156 17.994 78.3396 17.994C78.1343 17.994 77.9196 18.022 77.6956 18.078C77.4809 18.1247 77.2756 18.1853 77.0796 18.26C76.8836 18.3253 76.7203 18.4 76.5896 18.484V22.894C76.7296 22.9127 76.9303 22.9407 77.1916 22.978C77.4623 23.006 77.7236 23.02 77.9756 23.02ZM85.0908 24.154C84.5961 24.154 84.1994 24.0793 83.9008 23.93C83.6114 23.7807 83.4014 23.524 83.2708 23.16C83.1494 22.7867 83.0888 22.264 83.0888 21.592V18.092H82.1368V16.986H83.0888V14.928H84.3768V16.986H86.4628V18.092H84.3768V21.228C84.3768 21.6853 84.3954 22.0447 84.4328 22.306C84.4794 22.558 84.5681 22.7353 84.6988 22.838C84.8294 22.9407 85.0348 22.992 85.3148 22.992C85.4081 22.992 85.5248 22.992 85.6648 22.992C85.8048 22.9827 85.9494 22.9733 86.0988 22.964C86.2481 22.9453 86.3788 22.9313 86.4908 22.922L86.5608 23.986C86.3461 24.0233 86.0941 24.0607 85.8048 24.098C85.5154 24.1353 85.2774 24.154 85.0908 24.154ZM90.2503 24.14C89.5317 24.14 88.9623 24.0093 88.5423 23.748C88.1317 23.4773 87.833 23.076 87.6463 22.544C87.4597 22.012 87.3663 21.3447 87.3663 20.542C87.3663 19.6647 87.4877 18.9553 87.7303 18.414C87.9823 17.8727 88.3323 17.476 88.7803 17.224C89.2283 16.972 89.765 16.846 90.3903 16.846C91.3517 16.846 92.075 17.1073 92.5603 17.63C93.055 18.1433 93.3023 18.974 93.3023 20.122L93.2323 21.004H88.6963C88.7057 21.676 88.8317 22.1847 89.0743 22.53C89.317 22.866 89.7557 23.034 90.3903 23.034C90.661 23.034 90.955 23.0293 91.2723 23.02C91.599 23.0013 91.921 22.9827 92.2383 22.964C92.5557 22.9453 92.8263 22.9267 93.0503 22.908L93.0783 23.888C92.845 23.9253 92.565 23.9627 92.2383 24C91.9117 24.0467 91.571 24.0793 91.2163 24.098C90.871 24.126 90.549 24.14 90.2503 24.14ZM88.6963 20.038H92.0003C92.0003 19.2447 91.8697 18.6893 91.6083 18.372C91.3563 18.0547 90.9503 17.896 90.3903 17.896C89.8397 17.896 89.4197 18.0593 89.1303 18.386C88.841 18.7127 88.6963 19.2633 88.6963 20.038ZM97.065 24.14C96.7757 24.14 96.5004 24.1073 96.239 24.042C95.9777 23.9767 95.7397 23.8693 95.525 23.72C95.3197 23.5613 95.1377 23.3467 94.979 23.076C94.8297 22.8053 94.713 22.4647 94.629 22.054C94.5544 21.634 94.517 21.13 94.517 20.542C94.517 19.7207 94.615 19.0393 94.811 18.498C95.007 17.9473 95.3197 17.5367 95.749 17.266C96.1784 16.986 96.7524 16.846 97.471 16.846C97.723 16.846 98.0124 16.8693 98.339 16.916C98.6657 16.9533 98.9177 16.986 99.095 17.014V14.004H100.411V24H99.123L99.109 23.552C98.969 23.636 98.7824 23.7247 98.549 23.818C98.325 23.9113 98.0824 23.986 97.821 24.042C97.5597 24.1073 97.3077 24.14 97.065 24.14ZM97.303 23.006C97.527 23.006 97.751 22.9827 97.975 22.936C98.199 22.88 98.409 22.8147 98.605 22.74C98.8104 22.6653 98.9737 22.6 99.095 22.544V18.106C98.9924 18.0873 98.8477 18.0687 98.661 18.05C98.4837 18.0313 98.297 18.0127 98.101 17.994C97.9144 17.9753 97.7417 17.966 97.583 17.966C97.1444 17.966 96.799 18.064 96.547 18.26C96.295 18.456 96.113 18.7453 96.001 19.128C95.8984 19.5107 95.847 19.982 95.847 20.542C95.847 21.0647 95.8844 21.4847 95.959 21.802C96.0337 22.1193 96.1364 22.3667 96.267 22.544C96.407 22.7213 96.5657 22.8427 96.743 22.908C96.9204 22.9733 97.107 23.006 97.303 23.006ZM105.884 22.46V18.498H109.412V22.46H105.884ZM118.423 24.14C117.695 24.14 117.07 24.0373 116.547 23.832C116.034 23.6267 115.642 23.2953 115.371 22.838C115.101 22.3807 114.965 21.7693 114.965 21.004V14.354H116.309V21.046C116.309 21.7273 116.496 22.222 116.869 22.53C117.243 22.8287 117.761 22.978 118.423 22.978C119.123 22.978 119.66 22.8287 120.033 22.53C120.407 22.222 120.593 21.7273 120.593 21.046V14.354H121.937V21.004C121.937 21.7507 121.802 22.3573 121.531 22.824C121.261 23.2907 120.864 23.6267 120.341 23.832C119.819 24.0373 119.179 24.14 118.423 24.14ZM123.905 24V16.986H125.207V17.476C125.356 17.3827 125.547 17.2893 125.781 17.196C126.014 17.1027 126.261 17.0233 126.523 16.958C126.784 16.8833 127.036 16.846 127.279 16.846C127.932 16.846 128.431 16.9627 128.777 17.196C129.122 17.42 129.36 17.7887 129.491 18.302C129.631 18.806 129.701 19.4733 129.701 20.304V24H128.385V20.374C128.385 19.7953 128.352 19.3333 128.287 18.988C128.221 18.6427 128.091 18.3953 127.895 18.246C127.699 18.0873 127.405 18.008 127.013 18.008C126.798 18.008 126.574 18.0313 126.341 18.078C126.117 18.1247 125.902 18.1853 125.697 18.26C125.501 18.3347 125.337 18.4047 125.207 18.47V24H123.905ZM131.493 27.052V16.986H132.795V17.476C132.935 17.392 133.117 17.3033 133.341 17.21C133.565 17.1073 133.803 17.0233 134.055 16.958C134.307 16.8833 134.549 16.846 134.783 16.846C135.688 16.846 136.346 17.1353 136.757 17.714C137.167 18.2833 137.373 19.1887 137.373 20.43C137.373 21.3353 137.265 22.0633 137.051 22.614C136.845 23.1553 136.514 23.5473 136.057 23.79C135.609 24.0233 135.025 24.14 134.307 24.14C134.027 24.14 133.742 24.1213 133.453 24.084C133.173 24.0467 132.953 24.014 132.795 23.986V27.052H131.493ZM134.181 23.02C134.647 23.02 135.016 22.9313 135.287 22.754C135.567 22.5767 135.763 22.2967 135.875 21.914C135.987 21.5313 136.043 21.032 136.043 20.416C136.043 19.52 135.912 18.8947 135.651 18.54C135.389 18.176 135.021 17.994 134.545 17.994C134.339 17.994 134.125 18.022 133.901 18.078C133.686 18.1247 133.481 18.1853 133.285 18.26C133.089 18.3253 132.925 18.4 132.795 18.484V22.894C132.935 22.9127 133.135 22.9407 133.397 22.978C133.667 23.006 133.929 23.02 134.181 23.02ZM140.554 24.14C139.891 24.14 139.387 23.958 139.042 23.594C138.697 23.23 138.524 22.6933 138.524 21.984C138.524 21.508 138.608 21.1253 138.776 20.836C138.944 20.5373 139.191 20.3133 139.518 20.164C139.854 20.0147 140.269 19.926 140.764 19.898L142.794 19.702V19.156C142.794 18.7173 142.696 18.4093 142.5 18.232C142.304 18.0453 142.01 17.952 141.618 17.952C141.375 17.952 141.091 17.9613 140.764 17.98C140.437 17.9987 140.115 18.022 139.798 18.05C139.481 18.078 139.196 18.106 138.944 18.134L138.888 17.182C139.121 17.126 139.397 17.0747 139.714 17.028C140.041 16.9813 140.381 16.9393 140.736 16.902C141.091 16.8647 141.417 16.846 141.716 16.846C142.267 16.846 142.719 16.9253 143.074 17.084C143.429 17.2427 143.69 17.49 143.858 17.826C144.026 18.162 144.11 18.596 144.11 19.128V22.572C144.129 22.7587 144.203 22.8987 144.334 22.992C144.474 23.076 144.647 23.132 144.852 23.16L144.81 24.126C144.605 24.126 144.409 24.1167 144.222 24.098C144.045 24.0887 143.881 24.0607 143.732 24.014C143.583 23.9767 143.447 23.9253 143.326 23.86C143.214 23.7853 143.107 23.7013 143.004 23.608C142.836 23.6827 142.617 23.762 142.346 23.846C142.075 23.93 141.786 24 141.478 24.056C141.17 24.112 140.862 24.14 140.554 24.14ZM140.82 23.104C141.053 23.104 141.291 23.0807 141.534 23.034C141.786 22.9873 142.024 22.936 142.248 22.88C142.472 22.8147 142.654 22.7587 142.794 22.712V20.612L140.932 20.794C140.54 20.822 140.26 20.934 140.092 21.13C139.924 21.3167 139.84 21.5873 139.84 21.942C139.84 22.306 139.919 22.5907 140.078 22.796C140.246 23.0013 140.493 23.104 140.82 23.104ZM146.053 24V16.986H147.355V24H146.053ZM146.053 15.572V14.214H147.355V15.572H146.053ZM151.479 24.14C151.19 24.14 150.914 24.1073 150.653 24.042C150.392 23.9767 150.154 23.8693 149.939 23.72C149.734 23.5613 149.552 23.3467 149.393 23.076C149.244 22.8053 149.127 22.4647 149.043 22.054C148.968 21.634 148.931 21.13 148.931 20.542C148.931 19.7207 149.029 19.0393 149.225 18.498C149.421 17.9473 149.734 17.5367 150.163 17.266C150.592 16.986 151.166 16.846 151.885 16.846C152.137 16.846 152.426 16.8693 152.753 16.916C153.08 16.9533 153.332 16.986 153.509 17.014V14.004H154.825V24H153.537L153.523 23.552C153.383 23.636 153.196 23.7247 152.963 23.818C152.739 23.9113 152.496 23.986 152.235 24.042C151.974 24.1073 151.722 24.14 151.479 24.14ZM151.717 23.006C151.941 23.006 152.165 22.9827 152.389 22.936C152.613 22.88 152.823 22.8147 153.019 22.74C153.224 22.6653 153.388 22.6 153.509 22.544V18.106C153.406 18.0873 153.262 18.0687 153.075 18.05C152.898 18.0313 152.711 18.0127 152.515 17.994C152.328 17.9753 152.156 17.966 151.997 17.966C151.558 17.966 151.213 18.064 150.961 18.26C150.709 18.456 150.527 18.7453 150.415 19.128C150.312 19.5107 150.261 19.982 150.261 20.542C150.261 21.0647 150.298 21.4847 150.373 21.802C150.448 22.1193 150.55 22.3667 150.681 22.544C150.821 22.7213 150.98 22.8427 151.157 22.908C151.334 22.9733 151.521 23.006 151.717 23.006Z" fill="#42FF00"/>
<defs>
<clipPath id="clip0_520_6930">
<rect width="16" height="16" fill="white" transform="translate(24.5 11)"/>
</clipPath>
</defs>
</svg>
