<svg width="102" height="38" viewBox="0 0 102 38" fill="none" xmlns="http://www.w3.org/2000/svg">
<rect width="102" height="38" rx="10" fill="#37AD0D" fill-opacity="0.1"/>
<g clip-path="url(#clip0_520_7754)">
<path d="M40 11C38.4178 11 36.871 11.4692 35.5554 12.3482C34.2398 13.2273 33.2145 14.4767 32.609 15.9385C32.0035 17.4003 31.845 19.0089 32.1537 20.5607C32.4624 22.1126 33.2243 23.538 34.3431 24.6569C35.462 25.7757 36.8874 26.5376 38.4393 26.8463C39.9911 27.155 41.5997 26.9965 43.0615 26.391C44.5233 25.7855 45.7727 24.7602 46.6518 23.4446C47.5308 22.129 48 20.5822 48 19C48 16.8783 47.1571 14.8434 45.6569 13.3431C44.1566 11.8429 42.1217 11 40 11V11ZM44.5467 17.07L39.5267 22.7633C39.4457 22.8546 39.3474 22.929 39.2376 22.9822C39.1278 23.0354 39.0085 23.0663 38.8867 23.0733H38.8267C38.5993 23.0747 38.3795 22.9916 38.21 22.84L35.5233 20.4567C35.3386 20.2927 35.2265 20.062 35.2118 19.8154C35.1971 19.5688 35.281 19.3264 35.445 19.1417C35.609 18.9569 35.8397 18.8448 36.0863 18.8302C36.3329 18.8155 36.5752 18.8993 36.76 19.0633L38.76 20.8267L43.1633 15.8267C43.3269 15.6415 43.5573 15.5288 43.8039 15.5135C44.0505 15.4982 44.2931 15.5814 44.4783 15.745C44.6635 15.9085 44.7762 16.139 44.7915 16.3856C44.8068 16.6322 44.7236 16.8748 44.56 17.06L44.5467 17.07Z" fill="#333333"/>
</g>
<path d="M54.28 24L56.87 14.354H59.544L62.134 24H60.776L60.146 21.69H56.254L55.624 24H54.28ZM56.52 20.542H59.894L58.55 15.474H57.864L56.52 20.542ZM63.4302 24V14.004H64.7182V24H63.4302ZM66.7661 24V14.004H68.0541V24H66.7661Z" fill="#333333"/>
<defs>
<clipPath id="clip0_520_7754">
<rect width="16" height="16" fill="white" transform="translate(32 11)"/>
</clipPath>
</defs>
</svg>
