<svg width="24" height="24" viewBox="0 0 24 24" fill="none" xmlns="http://www.w3.org/2000/svg">
<path fill-rule="evenodd" clip-rule="evenodd" d="M9.45332 3.35111C9.89809 3.25633 10.2965 3.61132 10.2965 4.06608C10.2965 4.44366 10.0176 4.75989 9.64952 4.84425C6.12733 5.65153 3.5 8.80493 3.5 12.5719C3.5 16.9504 7.04948 20.4999 11.428 20.4999C15.19 20.4999 18.3399 17.8797 19.1524 14.3646C19.2374 13.9972 19.5533 13.719 19.9304 13.719C20.3858 13.719 20.7409 14.1184 20.6452 14.5636C19.7312 18.814 15.9516 21.9999 11.428 21.9999C6.22105 21.9999 2 17.7789 2 12.5719C2 8.04232 5.19439 4.25875 9.45332 3.35111Z" fill="#A3AED0"/>
<mask id="mask0_353_5533" style="mask-type:alpha" maskUnits="userSpaceOnUse" x="12" y="2" width="10" height="10">
<path d="M20.0146 11.9999C21.1192 11.9999 22.0348 11.0957 21.8153 10.0132C21.6879 9.38469 21.5 8.76839 21.2534 8.17307C20.7509 6.95981 20.0143 5.85742 19.0857 4.92883C18.1571 4.00025 17.0547 3.26365 15.8415 2.7611C15.2462 2.51451 14.6299 2.32664 14.0014 2.19924C12.9188 1.97979 12.0146 2.89533 12.0146 3.9999V9.9999C12.0146 11.1045 12.9101 11.9999 14.0146 11.9999H20.0146Z" fill="white"/>
</mask>
<g mask="url(#mask0_353_5533)">
<path d="M20.0146 11.9999C21.1192 11.9999 22.0348 11.0957 21.8153 10.0132C21.6879 9.38469 21.5 8.76839 21.2534 8.17307C20.7509 6.95981 20.0143 5.85742 19.0857 4.92883C18.1571 4.00025 17.0547 3.26365 15.8415 2.7611C15.2462 2.51451 14.6299 2.32664 14.0014 2.19924C12.9188 1.97979 12.0146 2.89533 12.0146 3.9999V9.9999C12.0146 11.1045 12.9101 11.9999 14.0146 11.9999H20.0146Z" stroke="#A3AED0" stroke-width="3"/>
</g>
</svg>
