<svg width="19" height="19" viewBox="0 0 19 19" fill="none" xmlns="http://www.w3.org/2000/svg">
<path d="M16.625 4.73409C13.9888 4.47284 11.3367 4.33826 8.6925 4.33826C7.125 4.33826 5.5575 4.41742 3.99 4.57576L2.375 4.73409" stroke="white" stroke-width="1.5" stroke-linecap="round" stroke-linejoin="round"/>
<path d="M6.72949 3.93462L6.90366 2.89754C7.03033 2.14546 7.12533 1.58337 8.46324 1.58337H10.5374C11.8753 1.58337 11.9782 2.17712 12.097 2.90546L12.2712 3.93462" stroke="white" stroke-width="1.5" stroke-linecap="round" stroke-linejoin="round"/>
<path d="M14.923 7.23584L14.4084 15.2079C14.3213 16.4508 14.2501 17.4167 12.0413 17.4167H6.95882C4.75007 17.4167 4.67882 16.4508 4.59173 15.2079L4.07715 7.23584" stroke="white" stroke-width="1.5" stroke-linecap="round" stroke-linejoin="round"/>
<path d="M8.17773 13.0625H10.814" stroke="white" stroke-width="1.5" stroke-linecap="round" stroke-linejoin="round"/>
<path d="M7.52051 9.89587H11.4788" stroke="white" stroke-width="1.5" stroke-linecap="round" stroke-linejoin="round"/>
</svg>
