<svg width="16" height="20" viewBox="0 0 16 20" fill="none" xmlns="http://www.w3.org/2000/svg">
<path d="M15.3335 15.29L14.0435 14V9C14.0435 5.93 12.4035 3.36 9.54351 2.68V2C9.54351 1.17 8.87351 0.5 8.04351 0.5C7.21351 0.5 6.54351 1.17 6.54351 2V2.68C3.67351 3.36 2.04351 5.92 2.04351 9V14L0.753508 15.29C0.123508 15.92 0.563508 17 1.45351 17H14.6235C15.5235 17 15.9635 15.92 15.3335 15.29ZM12.0435 15H4.04351V9C4.04351 6.52 5.55351 4.5 8.04351 4.5C10.5335 4.5 12.0435 6.52 12.0435 9V15ZM8.04351 20C9.14351 20 10.0435 19.1 10.0435 18H6.04351C6.04351 19.1 6.93351 20 8.04351 20Z" fill="#A3AED0"/>
</svg>
