<svg width="110" height="38" viewBox="0 0 110 38" fill="none" xmlns="http://www.w3.org/2000/svg">
<rect width="110" height="38" rx="10" fill="#FFB800" fill-opacity="0.1"/>
<g clip-path="url(#clip0_520_6935)">
<path d="M27.5 11C23.1 11 19.5 14.6 19.5 19C19.5 23.4 23.1 27 27.5 27C31.9 27 35.5 23.4 35.5 19C35.5 14.6 31.9 11 27.5 11ZM30.46 20.84C30.78 21.16 30.78 21.64 30.46 21.96C30.14 22.28 29.66 22.28 29.34 21.96L27.5 20.12L25.66 21.96C25.34 22.28 24.86 22.28 24.54 21.96C24.22 21.64 24.22 21.16 24.54 20.84L26.38 19L24.54 17.16C24.22 16.84 24.22 16.36 24.54 16.04C24.86 15.72 25.34 15.72 25.66 16.04L27.5 17.88L29.34 16.04C29.66 15.72 30.14 15.72 30.46 16.04C30.78 16.36 30.78 16.84 30.46 17.16L28.62 19L30.46 20.84Z" fill="#FFB800"/>
</g>
<path d="M42.592 24V14.354H46.148C46.8853 14.354 47.492 14.4707 47.968 14.704C48.444 14.928 48.7987 15.2733 49.032 15.74C49.2653 16.2067 49.382 16.8087 49.382 17.546C49.382 18.274 49.2653 18.8853 49.032 19.38C48.7987 19.8747 48.444 20.248 47.968 20.5C47.492 20.752 46.8853 20.878 46.148 20.878H43.936V24H42.592ZM43.936 19.744H46.134C46.7967 19.744 47.2727 19.5573 47.562 19.184C47.8607 18.8013 48.01 18.2553 48.01 17.546C48.01 16.8367 47.8607 16.3187 47.562 15.992C47.2727 15.6653 46.7967 15.502 46.134 15.502H43.936V19.744ZM53.3265 24.14C52.6078 24.14 52.0385 24.0093 51.6185 23.748C51.2078 23.4773 50.9092 23.076 50.7225 22.544C50.5358 22.012 50.4425 21.3447 50.4425 20.542C50.4425 19.6647 50.5638 18.9553 50.8065 18.414C51.0585 17.8727 51.4085 17.476 51.8565 17.224C52.3045 16.972 52.8412 16.846 53.4665 16.846C54.4278 16.846 55.1512 17.1073 55.6365 17.63C56.1312 18.1433 56.3785 18.974 56.3785 20.122L56.3085 21.004H51.7725C51.7818 21.676 51.9078 22.1847 52.1505 22.53C52.3932 22.866 52.8318 23.034 53.4665 23.034C53.7372 23.034 54.0312 23.0293 54.3485 23.02C54.6752 23.0013 54.9972 22.9827 55.3145 22.964C55.6318 22.9453 55.9025 22.9267 56.1265 22.908L56.1545 23.888C55.9212 23.9253 55.6412 23.9627 55.3145 24C54.9878 24.0467 54.6472 24.0793 54.2925 24.098C53.9472 24.126 53.6252 24.14 53.3265 24.14ZM51.7725 20.038H55.0765C55.0765 19.2447 54.9458 18.6893 54.6845 18.372C54.4325 18.0547 54.0265 17.896 53.4665 17.896C52.9158 17.896 52.4958 18.0593 52.2065 18.386C51.9172 18.7127 51.7725 19.2633 51.7725 20.038ZM57.8872 24V16.986H59.1892V17.476C59.3386 17.3827 59.5299 17.2893 59.7632 17.196C59.9966 17.1027 60.2439 17.0233 60.5052 16.958C60.7666 16.8833 61.0186 16.846 61.2612 16.846C61.9146 16.846 62.4139 16.9627 62.7592 17.196C63.1046 17.42 63.3426 17.7887 63.4732 18.302C63.6132 18.806 63.6832 19.4733 63.6832 20.304V24H62.3672V20.374C62.3672 19.7953 62.3346 19.3333 62.2692 18.988C62.2039 18.6427 62.0732 18.3953 61.8772 18.246C61.6812 18.0873 61.3872 18.008 60.9952 18.008C60.7806 18.008 60.5566 18.0313 60.3232 18.078C60.0992 18.1247 59.8846 18.1853 59.6792 18.26C59.4832 18.3347 59.3199 18.4047 59.1892 18.47V24H57.8872ZM67.7291 24.14C67.4398 24.14 67.1644 24.1073 66.9031 24.042C66.6418 23.9767 66.4038 23.8693 66.1891 23.72C65.9838 23.5613 65.8018 23.3467 65.6431 23.076C65.4938 22.8053 65.3771 22.4647 65.2931 22.054C65.2184 21.634 65.1811 21.13 65.1811 20.542C65.1811 19.7207 65.2791 19.0393 65.4751 18.498C65.6711 17.9473 65.9838 17.5367 66.4131 17.266C66.8424 16.986 67.4164 16.846 68.1351 16.846C68.3871 16.846 68.6764 16.8693 69.0031 16.916C69.3298 16.9533 69.5818 16.986 69.7591 17.014V14.004H71.0751V24H69.7871L69.7731 23.552C69.6331 23.636 69.4464 23.7247 69.2131 23.818C68.9891 23.9113 68.7464 23.986 68.4851 24.042C68.2238 24.1073 67.9718 24.14 67.7291 24.14ZM67.9671 23.006C68.1911 23.006 68.4151 22.9827 68.6391 22.936C68.8631 22.88 69.0731 22.8147 69.2691 22.74C69.4744 22.6653 69.6378 22.6 69.7591 22.544V18.106C69.6564 18.0873 69.5118 18.0687 69.3251 18.05C69.1478 18.0313 68.9611 18.0127 68.7651 17.994C68.5784 17.9753 68.4058 17.966 68.2471 17.966C67.8084 17.966 67.4631 18.064 67.2111 18.26C66.9591 18.456 66.7771 18.7453 66.6651 19.128C66.5624 19.5107 66.5111 19.982 66.5111 20.542C66.5111 21.0647 66.5484 21.4847 66.6231 21.802C66.6978 22.1193 66.8004 22.3667 66.9311 22.544C67.0711 22.7213 67.2298 22.8427 67.4071 22.908C67.5844 22.9733 67.7711 23.006 67.9671 23.006ZM72.9536 24V16.986H74.2556V24H72.9536ZM72.9536 15.572V14.214H74.2556V15.572H72.9536ZM76.1255 24V16.986H77.4275V17.476C77.5768 17.3827 77.7682 17.2893 78.0015 17.196C78.2348 17.1027 78.4822 17.0233 78.7435 16.958C79.0048 16.8833 79.2568 16.846 79.4995 16.846C80.1528 16.846 80.6522 16.9627 80.9975 17.196C81.3428 17.42 81.5808 17.7887 81.7115 18.302C81.8515 18.806 81.9215 19.4733 81.9215 20.304V24H80.6055V20.374C80.6055 19.7953 80.5728 19.3333 80.5075 18.988C80.4422 18.6427 80.3115 18.3953 80.1155 18.246C79.9195 18.0873 79.6255 18.008 79.2335 18.008C79.0188 18.008 78.7948 18.0313 78.5615 18.078C78.3375 18.1247 78.1228 18.1853 77.9175 18.26C77.7215 18.3347 77.5582 18.4047 77.4275 18.47V24H76.1255ZM86.5274 27.262C85.7901 27.262 85.1927 27.2013 84.7354 27.08C84.2781 26.9587 83.9421 26.744 83.7274 26.436C83.5127 26.1373 83.4054 25.722 83.4054 25.19C83.4054 24.9193 83.4427 24.686 83.5174 24.49C83.6014 24.3033 83.7227 24.1307 83.8814 23.972C84.0494 23.804 84.2547 23.6313 84.4974 23.454C84.3667 23.3607 84.2641 23.2253 84.1894 23.048C84.1241 22.8707 84.0914 22.6747 84.0914 22.46C84.0914 22.3573 84.1474 22.194 84.2594 21.97C84.3714 21.746 84.4834 21.5453 84.5954 21.368C84.3994 21.2747 84.2174 21.1487 84.0494 20.99C83.8907 20.822 83.7601 20.598 83.6574 20.318C83.5547 20.038 83.5034 19.6833 83.5034 19.254C83.5034 18.386 83.7461 17.77 84.2314 17.406C84.7261 17.0327 85.3841 16.846 86.2054 16.846C86.4574 16.846 86.7234 16.8647 87.0034 16.902C87.2834 16.9393 87.5027 16.9813 87.6614 17.028L89.8034 16.972V17.994L88.5574 17.966C88.6787 18.0873 88.7767 18.2507 88.8514 18.456C88.9354 18.6613 88.9774 18.9273 88.9774 19.254C88.9774 19.87 88.8747 20.3553 88.6694 20.71C88.4641 21.0553 88.1514 21.298 87.7314 21.438C87.3207 21.5687 86.8027 21.634 86.1774 21.634C86.1121 21.634 86.0047 21.6293 85.8554 21.62C85.7154 21.6013 85.6081 21.5873 85.5334 21.578C85.4774 21.6993 85.4214 21.8393 85.3654 21.998C85.3187 22.1473 85.2954 22.2547 85.2954 22.32C85.2954 22.4787 85.3281 22.6 85.3934 22.684C85.4681 22.768 85.6221 22.824 85.8554 22.852C86.0981 22.88 86.4761 22.894 86.9894 22.894C87.6614 22.894 88.1981 22.9547 88.5994 23.076C89.0007 23.188 89.2854 23.3933 89.4534 23.692C89.6214 23.9813 89.7054 24.406 89.7054 24.966C89.7054 25.778 89.4254 26.3613 88.8654 26.716C88.3054 27.08 87.5261 27.262 86.5274 27.262ZM86.5134 26.212C87.1667 26.212 87.6474 26.1233 87.9554 25.946C88.2634 25.7687 88.4174 25.4747 88.4174 25.064C88.4174 24.7467 88.3661 24.5133 88.2634 24.364C88.1701 24.2147 88.0021 24.1167 87.7594 24.07C87.5167 24.0233 87.1947 24 86.7934 24C86.7094 24 86.5927 24 86.4434 24C86.3034 23.9907 86.1541 23.986 85.9954 23.986C85.8461 23.9767 85.7107 23.9673 85.5894 23.958C85.4681 23.9487 85.3841 23.944 85.3374 23.944C85.0761 24.1307 84.8941 24.2987 84.7914 24.448C84.6887 24.6067 84.6374 24.8073 84.6374 25.05C84.6374 25.33 84.6934 25.554 84.8054 25.722C84.9174 25.8993 85.1087 26.0253 85.3794 26.1C85.6501 26.1747 86.0281 26.212 86.5134 26.212ZM86.2054 20.654C86.7467 20.654 87.1294 20.5467 87.3534 20.332C87.5867 20.1173 87.7034 19.758 87.7034 19.254C87.7034 18.75 87.5867 18.3907 87.3534 18.176C87.1294 17.9613 86.7467 17.854 86.2054 17.854C85.7014 17.854 85.3374 17.9613 85.1134 18.176C84.8987 18.3907 84.7914 18.75 84.7914 19.254C84.7914 19.758 84.8987 20.1173 85.1134 20.332C85.3374 20.5467 85.7014 20.654 86.2054 20.654Z" fill="#FFB800"/>
<defs>
<clipPath id="clip0_520_6935">
<rect width="16" height="16" fill="white" transform="translate(19.5 11)"/>
</clipPath>
</defs>
</svg>
