<svg width="110" height="38" viewBox="0 0 110 38" fill="none" xmlns="http://www.w3.org/2000/svg">
<rect width="110" height="38" rx="10" fill="#F84040" fill-opacity="0.1"/>
<g clip-path="url(#clip0_520_6940)">
<path d="M26 11C21.6 11 18 14.6 18 19C18 23.4 21.6 27 26 27C30.4 27 34 23.4 34 19C34 14.6 30.4 11 26 11ZM28.96 20.84C29.28 21.16 29.28 21.64 28.96 21.96C28.64 22.28 28.16 22.28 27.84 21.96L26 20.12L24.16 21.96C23.84 22.28 23.36 22.28 23.04 21.96C22.72 21.64 22.72 21.16 23.04 20.84L24.88 19L23.04 17.16C22.72 16.84 22.72 16.36 23.04 16.04C23.36 15.72 23.84 15.72 24.16 16.04L26 17.88L27.84 16.04C28.16 15.72 28.64 15.72 28.96 16.04C29.28 16.36 29.28 16.84 28.96 17.16L27.12 19L28.96 20.84Z" fill="#F84040"/>
</g>
<path d="M41.092 24V14.354H44.732C45.4413 14.354 46.034 14.4567 46.51 14.662C46.986 14.8673 47.3407 15.1893 47.574 15.628C47.8167 16.0667 47.938 16.6407 47.938 17.35C47.938 18.05 47.798 18.6427 47.518 19.128C47.2473 19.6133 46.8227 19.954 46.244 20.15L48.008 24H46.538L44.956 20.444H42.436V24H41.092ZM42.436 19.31H44.746C45.194 19.31 45.5487 19.226 45.81 19.058C46.0807 18.89 46.272 18.6613 46.384 18.372C46.496 18.0733 46.552 17.7373 46.552 17.364C46.552 16.7387 46.4027 16.272 46.104 15.964C45.8147 15.656 45.3573 15.502 44.732 15.502H42.436V19.31ZM52.141 24.14C51.4223 24.14 50.853 24.0093 50.433 23.748C50.0223 23.4773 49.7236 23.076 49.537 22.544C49.3503 22.012 49.257 21.3447 49.257 20.542C49.257 19.6647 49.3783 18.9553 49.621 18.414C49.873 17.8727 50.223 17.476 50.671 17.224C51.119 16.972 51.6556 16.846 52.281 16.846C53.2423 16.846 53.9656 17.1073 54.451 17.63C54.9456 18.1433 55.193 18.974 55.193 20.122L55.123 21.004H50.587C50.5963 21.676 50.7223 22.1847 50.965 22.53C51.2076 22.866 51.6463 23.034 52.281 23.034C52.5516 23.034 52.8456 23.0293 53.163 23.02C53.4896 23.0013 53.8116 22.9827 54.129 22.964C54.4463 22.9453 54.717 22.9267 54.941 22.908L54.969 23.888C54.7356 23.9253 54.4556 23.9627 54.129 24C53.8023 24.0467 53.4616 24.0793 53.107 24.098C52.7616 24.126 52.4396 24.14 52.141 24.14ZM50.587 20.038H53.891C53.891 19.2447 53.7603 18.6893 53.499 18.372C53.247 18.0547 52.841 17.896 52.281 17.896C51.7303 17.896 51.3103 18.0593 51.021 18.386C50.7316 18.7127 50.587 19.2633 50.587 20.038ZM55.5677 27.122L55.0777 26.114C55.423 25.918 55.703 25.7407 55.9177 25.582C56.1323 25.4327 56.2957 25.274 56.4077 25.106C56.5197 24.9473 56.5943 24.7607 56.6317 24.546C56.6783 24.3313 56.7017 24.0607 56.7017 23.734V16.986H58.0177V23.734C58.0177 24.1913 57.9803 24.5833 57.9057 24.91C57.831 25.2367 57.705 25.5213 57.5277 25.764C57.3503 26.0067 57.0983 26.2307 56.7717 26.436C56.4543 26.6507 56.053 26.8793 55.5677 27.122ZM56.7017 15.572V14.214H58.0177V15.572H56.7017ZM62.4495 24.14C61.7309 24.14 61.1615 24.0093 60.7415 23.748C60.3309 23.4773 60.0322 23.076 59.8455 22.544C59.6589 22.012 59.5655 21.3447 59.5655 20.542C59.5655 19.6647 59.6869 18.9553 59.9295 18.414C60.1815 17.8727 60.5315 17.476 60.9795 17.224C61.4275 16.972 61.9642 16.846 62.5895 16.846C63.5509 16.846 64.2742 17.1073 64.7595 17.63C65.2542 18.1433 65.5015 18.974 65.5015 20.122L65.4315 21.004H60.8955C60.9049 21.676 61.0309 22.1847 61.2735 22.53C61.5162 22.866 61.9549 23.034 62.5895 23.034C62.8602 23.034 63.1542 23.0293 63.4715 23.02C63.7982 23.0013 64.1202 22.9827 64.4375 22.964C64.7549 22.9453 65.0255 22.9267 65.2495 22.908L65.2775 23.888C65.0442 23.9253 64.7642 23.9627 64.4375 24C64.1109 24.0467 63.7702 24.0793 63.4155 24.098C63.0702 24.126 62.7482 24.14 62.4495 24.14ZM60.8955 20.038H64.1995C64.1995 19.2447 64.0689 18.6893 63.8075 18.372C63.5555 18.0547 63.1495 17.896 62.5895 17.896C62.0389 17.896 61.6189 18.0593 61.3295 18.386C61.0402 18.7127 60.8955 19.2633 60.8955 20.038ZM69.6843 24.14C68.9283 24.14 68.3356 24.0187 67.9063 23.776C67.4769 23.524 67.1736 23.1227 66.9963 22.572C66.8189 22.0213 66.7303 21.298 66.7303 20.402C66.7303 19.534 66.8283 18.8433 67.0243 18.33C67.2203 17.8073 67.5376 17.4293 67.9763 17.196C68.4149 16.9627 68.9889 16.846 69.6983 16.846C69.8663 16.846 70.0669 16.86 70.3003 16.888C70.5429 16.9067 70.7856 16.9347 71.0283 16.972C71.2803 17.0093 71.4949 17.042 71.6723 17.07L71.6303 18.134C71.4716 18.1153 71.2849 18.0967 71.0703 18.078C70.8556 18.0593 70.6503 18.0453 70.4543 18.036C70.2583 18.0173 70.0949 18.008 69.9643 18.008C69.4603 18.008 69.0683 18.0873 68.7883 18.246C68.5176 18.4047 68.3263 18.6567 68.2143 19.002C68.1116 19.3473 68.0603 19.814 68.0603 20.402C68.0603 21.0367 68.1069 21.5453 68.2003 21.928C68.3029 22.3013 68.4896 22.572 68.7603 22.74C69.0309 22.8987 69.4323 22.978 69.9643 22.978C70.0949 22.978 70.2583 22.9733 70.4543 22.964C70.6596 22.9453 70.8696 22.9267 71.0843 22.908C71.3083 22.8893 71.4996 22.8753 71.6583 22.866L71.7003 23.93C71.5136 23.958 71.2943 23.986 71.0423 24.014C70.7996 24.0513 70.5569 24.0793 70.3143 24.098C70.0716 24.126 69.8616 24.14 69.6843 24.14ZM75.5146 24.154C75.0199 24.154 74.6233 24.0793 74.3246 23.93C74.0353 23.7807 73.8253 23.524 73.6946 23.16C73.5733 22.7867 73.5126 22.264 73.5126 21.592V18.092H72.5606V16.986H73.5126V14.928H74.8006V16.986H76.8866V18.092H74.8006V21.228C74.8006 21.6853 74.8193 22.0447 74.8566 22.306C74.9033 22.558 74.9919 22.7353 75.1226 22.838C75.2533 22.9407 75.4586 22.992 75.7386 22.992C75.8319 22.992 75.9486 22.992 76.0886 22.992C76.2286 22.9827 76.3733 22.9733 76.5226 22.964C76.6719 22.9453 76.8026 22.9313 76.9146 22.922L76.9846 23.986C76.7699 24.0233 76.5179 24.0607 76.2286 24.098C75.9393 24.1353 75.7013 24.154 75.5146 24.154ZM80.6742 24.14C79.9555 24.14 79.3862 24.0093 78.9662 23.748C78.5555 23.4773 78.2568 23.076 78.0702 22.544C77.8835 22.012 77.7902 21.3447 77.7902 20.542C77.7902 19.6647 77.9115 18.9553 78.1542 18.414C78.4062 17.8727 78.7562 17.476 79.2042 17.224C79.6522 16.972 80.1888 16.846 80.8142 16.846C81.7755 16.846 82.4988 17.1073 82.9842 17.63C83.4788 18.1433 83.7262 18.974 83.7262 20.122L83.6562 21.004H79.1202C79.1295 21.676 79.2555 22.1847 79.4982 22.53C79.7408 22.866 80.1795 23.034 80.8142 23.034C81.0848 23.034 81.3788 23.0293 81.6962 23.02C82.0228 23.0013 82.3448 22.9827 82.6622 22.964C82.9795 22.9453 83.2502 22.9267 83.4742 22.908L83.5022 23.888C83.2688 23.9253 82.9888 23.9627 82.6622 24C82.3355 24.0467 81.9948 24.0793 81.6402 24.098C81.2948 24.126 80.9728 24.14 80.6742 24.14ZM79.1202 20.038H82.4242C82.4242 19.2447 82.2935 18.6893 82.0322 18.372C81.7802 18.0547 81.3742 17.896 80.8142 17.896C80.2635 17.896 79.8435 18.0593 79.5542 18.386C79.2648 18.7127 79.1202 19.2633 79.1202 20.038ZM87.4889 24.14C87.1995 24.14 86.9242 24.1073 86.6629 24.042C86.4015 23.9767 86.1635 23.8693 85.9489 23.72C85.7435 23.5613 85.5615 23.3467 85.4029 23.076C85.2535 22.8053 85.1369 22.4647 85.0529 22.054C84.9782 21.634 84.9409 21.13 84.9409 20.542C84.9409 19.7207 85.0389 19.0393 85.2349 18.498C85.4309 17.9473 85.7435 17.5367 86.1729 17.266C86.6022 16.986 87.1762 16.846 87.8949 16.846C88.1469 16.846 88.4362 16.8693 88.7629 16.916C89.0895 16.9533 89.3415 16.986 89.5189 17.014V14.004H90.8349V24H89.5469L89.5329 23.552C89.3929 23.636 89.2062 23.7247 88.9729 23.818C88.7489 23.9113 88.5062 23.986 88.2449 24.042C87.9835 24.1073 87.7315 24.14 87.4889 24.14ZM87.7269 23.006C87.9509 23.006 88.1749 22.9827 88.3989 22.936C88.6229 22.88 88.8329 22.8147 89.0289 22.74C89.2342 22.6653 89.3975 22.6 89.5189 22.544V18.106C89.4162 18.0873 89.2715 18.0687 89.0849 18.05C88.9075 18.0313 88.7209 18.0127 88.5249 17.994C88.3382 17.9753 88.1655 17.966 88.0069 17.966C87.5682 17.966 87.2229 18.064 86.9709 18.26C86.7189 18.456 86.5369 18.7453 86.4249 19.128C86.3222 19.5107 86.2709 19.982 86.2709 20.542C86.2709 21.0647 86.3082 21.4847 86.3829 21.802C86.4575 22.1193 86.5602 22.3667 86.6909 22.544C86.8309 22.7213 86.9895 22.8427 87.1669 22.908C87.3442 22.9733 87.5309 23.006 87.7269 23.006Z" fill="#F84040"/>
<defs>
<clipPath id="clip0_520_6940">
<rect width="16" height="16" fill="white" transform="translate(18 11)"/>
</clipPath>
</defs>
</svg>
